<svg width="649" height="482" viewBox="0 0 649 482" fill="none" xmlns="http://www.w3.org/2000/svg">
<path d="M648.48 424.625H0V424.949H648.48V424.625Z" fill="#E6E6E6"/>
<path d="M147.672 435.026H103.057V435.351H147.672V435.026Z" fill="#E6E6E6"/>
<path d="M169.551 435.026H156.219V435.351H169.551V435.026Z" fill="#E6E6E6"/>
<path d="M235.333 428.658H210.224V428.983H235.333V428.658Z" fill="#E6E6E6"/>
<path d="M558.484 442.224H502.468V442.549H558.484V442.224Z" fill="#E6E6E6"/>
<path d="M578.25 442.224H570.04V442.549H578.25V442.224Z" fill="#E6E6E6"/>
<path d="M516.644 430.837H395.145V431.161H516.644V430.837Z" fill="#E6E6E6"/>
<path d="M307.379 366.78H56.9493C54.9875 366.777 53.1071 365.995 51.7211 364.607C50.3351 363.218 49.5566 361.337 49.5566 359.375V7.34079C49.5737 5.3902 50.3597 3.52511 51.7439 2.15064C53.1281 0.776176 54.9986 0.00334147 56.9493 0H307.379C309.343 0 311.227 0.780235 312.616 2.16906C314.005 3.55789 314.785 5.44154 314.785 7.40564V359.375C314.785 361.339 314.005 363.222 312.616 364.611C311.227 366 309.343 366.78 307.379 366.78ZM56.9493 0.259393C55.0735 0.262829 53.2756 1.01042 51.9504 2.33806C50.6252 3.66571 49.8809 5.46493 49.8809 7.34079V359.375C49.8809 361.251 50.6252 363.05 51.9504 364.377C53.2756 365.705 55.0735 366.453 56.9493 366.456H307.379C309.256 366.453 311.056 365.705 312.383 364.378C313.71 363.051 314.457 361.252 314.461 359.375V7.34079C314.457 5.46374 313.71 3.66455 312.383 2.33727C311.056 1.01 309.256 0.262821 307.379 0.259393H56.9493Z" fill="#E6E6E6"/>
<path d="M587.925 366.78H337.482C335.519 366.777 333.637 365.996 332.249 364.607C330.861 363.219 330.08 361.338 330.076 359.375V7.34079C330.097 5.38902 330.886 3.52394 332.272 2.14983C333.658 0.775723 335.53 0.00330503 337.482 0H587.925C589.873 0.00675002 591.741 0.781093 593.122 2.15519C594.503 3.5293 595.287 5.39244 595.305 7.34079V359.375C595.305 361.334 594.528 363.214 593.145 364.602C591.761 365.99 589.884 366.773 587.925 366.78ZM337.482 0.259393C335.605 0.262821 333.806 1.01 332.478 2.33727C331.151 3.66455 330.404 5.46374 330.4 7.34079V359.375C330.404 361.252 331.151 363.051 332.478 364.378C333.806 365.705 335.605 366.453 337.482 366.456H587.925C589.802 366.453 591.601 365.705 592.928 364.378C594.256 363.051 595.003 361.252 595.006 359.375V7.34079C595.003 5.46374 594.256 3.66455 592.928 2.33727C591.601 1.01 589.802 0.262821 587.925 0.259393H337.482Z" fill="#E6E6E6"/>
<path d="M543.452 247.862H452.574V424.625H543.452V247.862Z" fill="#F5F5F5"/>
<path d="M543.452 247.862H535.956V424.625H543.452V247.862Z" fill="#F0F0F0"/>
<path d="M250.339 291.09H459.578V252.907L250.339 252.907V291.09Z" fill="#E0E0E0"/>
<path d="M337.586 424.754H247.875C247.531 424.754 247.201 424.618 246.958 424.375C246.715 424.131 246.578 423.801 246.578 423.457C246.578 423.113 246.715 422.784 246.958 422.54C247.201 422.297 247.531 422.16 247.875 422.16H337.586C350.555 422.16 352.28 418.373 352.28 403.355V213.998C352.28 213.654 352.417 213.325 352.66 213.081C352.904 212.838 353.233 212.701 353.577 212.701C353.921 212.701 354.251 212.838 354.494 213.081C354.738 213.325 354.874 213.654 354.874 213.998V403.355C354.874 419.411 352.384 424.754 337.586 424.754Z" fill="#E0E0E0"/>
<path d="M258.381 261.804L541.403 261.804V248.549L258.381 248.549V261.804Z" fill="#F0F0F0"/>
<path d="M260.43 247.862H169.552V424.625H260.43V247.862Z" fill="#F5F5F5"/>
<path d="M260.417 247.862H252.92V424.625H260.417V247.862Z" fill="#F0F0F0"/>
<path d="M196.074 424.625L196.074 109.853H118.088L118.088 424.625H196.074Z" fill="#FAFAFA"/>
<path d="M191.794 188.474V119.048H122.368V188.474H191.794Z" fill="#F5F5F5"/>
<path d="M141.706 118.114H172.496C172.496 120.023 171.738 121.854 170.388 123.204C169.038 124.554 167.207 125.312 165.298 125.312H148.956C148.006 125.319 147.065 125.138 146.186 124.779C145.306 124.421 144.507 123.891 143.833 123.222C143.159 122.553 142.624 121.757 142.259 120.881C141.894 120.004 141.706 119.064 141.706 118.114Z" fill="#E0E0E0"/>
<path d="M191.782 264.126V194.7H122.355V264.126H191.782Z" fill="#F5F5F5"/>
<path d="M191.794 339.778V270.351H122.368V339.778H191.794Z" fill="#F5F5F5"/>
<path d="M191.794 415.442V346.016H122.368V415.442H191.794Z" fill="#F5F5F5"/>
<path d="M141.706 193.779H172.496C172.492 195.687 171.733 197.516 170.384 198.865C169.035 200.214 167.206 200.974 165.298 200.977H148.956C148.007 200.982 147.066 200.8 146.188 200.44C145.309 200.081 144.51 199.552 143.836 198.883C143.163 198.214 142.628 197.419 142.262 196.543C141.897 195.667 141.708 194.728 141.706 193.779Z" fill="#E0E0E0"/>
<path d="M141.706 269.43H172.496C172.496 271.339 171.738 273.17 170.388 274.52C169.038 275.87 167.207 276.629 165.298 276.629H148.956C148.006 276.635 147.065 276.454 146.186 276.096C145.306 275.737 144.507 275.208 143.833 274.539C143.159 273.87 142.624 273.074 142.259 272.197C141.894 271.32 141.706 270.38 141.706 269.43Z" fill="#E0E0E0"/>
<path d="M141.706 345.082H172.496C172.496 346.991 171.738 348.822 170.388 350.172C169.038 351.522 167.207 352.28 165.298 352.28H148.956C148.006 352.287 147.065 352.106 146.186 351.747C145.306 351.389 144.507 350.86 143.833 350.191C143.159 349.521 142.624 348.726 142.259 347.849C141.894 346.972 141.706 346.032 141.706 345.082Z" fill="#E0E0E0"/>
<path d="M118.088 424.625L118.088 109.853H79.1407L79.1407 424.625H118.088Z" fill="#F0F0F0"/>
<path d="M342.903 247.862H323.306L328.066 209.705H347.676L342.903 247.862Z" fill="#F0F0F0"/>
<path d="M347.248 247.862H327.638L332.411 209.705H352.008L347.248 247.862Z" fill="#F5F5F5"/>
<path d="M389.296 247.862H375.12L372.409 243.543H386.572L389.296 247.862Z" fill="#F0F0F0"/>
<path d="M465.246 247.862H379.452L376.741 243.543H453.677L465.246 247.862Z" fill="#FAFAFA"/>
<path d="M280.74 236.916H286.939C289.842 236.916 292.627 238.069 294.68 240.122C296.732 242.175 297.886 244.959 297.886 247.862H269.768C269.768 246.422 270.052 244.997 270.603 243.667C271.155 242.337 271.964 241.129 272.983 240.113C274.002 239.096 275.212 238.29 276.543 237.741C277.874 237.193 279.3 236.912 280.74 236.916Z" fill="#F0F0F0"/>
<path d="M349.621 228.784H330.024L332.411 209.705H352.008L349.621 228.784Z" fill="#F0F0F0"/>
<path d="M277.549 224.218H416.324C416.597 224.219 416.867 224.161 417.116 224.049C417.365 223.936 417.587 223.772 417.768 223.567C417.948 223.362 418.083 223.121 418.163 222.86C418.242 222.599 418.266 222.323 418.231 222.053L407.544 136.557C407.487 136.091 407.261 135.663 406.91 135.352C406.559 135.042 406.106 134.871 405.637 134.871H266.901C266.629 134.871 266.361 134.928 266.113 135.04C265.865 135.151 265.643 135.314 265.463 135.518C265.283 135.721 265.148 135.961 265.067 136.22C264.986 136.48 264.962 136.754 264.995 137.024L275.682 222.532C275.738 222.991 275.958 223.414 276.301 223.724C276.644 224.034 277.087 224.209 277.549 224.218Z" fill="#F0F0F0"/>
<path d="M279.651 224.218H418.335C418.608 224.219 418.878 224.161 419.127 224.049C419.376 223.936 419.598 223.772 419.778 223.567C419.959 223.362 420.093 223.121 420.173 222.86C420.253 222.599 420.276 222.323 420.241 222.053L409.554 136.557C409.495 136.093 409.268 135.666 408.918 135.356C408.567 135.046 408.116 134.873 407.648 134.871H268.964C268.692 134.871 268.423 134.928 268.175 135.04C267.927 135.151 267.706 135.314 267.525 135.518C267.345 135.721 267.21 135.961 267.13 136.22C267.049 136.48 267.024 136.754 267.057 137.024L277.744 222.532C277.801 222.998 278.027 223.426 278.378 223.737C278.729 224.047 279.182 224.219 279.651 224.218Z" fill="#F5F5F5"/>
<path d="M415.767 219.485L405.767 139.462C405.748 139.332 405.683 139.212 405.583 139.126C405.482 139.04 405.354 138.994 405.222 138.995H272.064C271.987 138.992 271.911 139.007 271.841 139.036C271.771 139.066 271.708 139.111 271.657 139.168C271.607 139.225 271.569 139.293 271.547 139.366C271.526 139.439 271.52 139.516 271.532 139.592L281.531 219.627C281.547 219.757 281.61 219.876 281.708 219.962C281.806 220.048 281.933 220.095 282.063 220.094H415.235C415.311 220.093 415.386 220.076 415.456 220.043C415.525 220.011 415.586 219.965 415.636 219.908C415.687 219.85 415.724 219.783 415.746 219.71C415.769 219.637 415.776 219.56 415.767 219.485Z" fill="#E0E0E0"/>
<path d="M365.081 247.862H333.15V247.46C333.15 246.617 333.485 245.809 334.081 245.213C334.676 244.617 335.485 244.282 336.327 244.282H361.903C362.746 244.282 363.554 244.617 364.15 245.213C364.746 245.809 365.081 246.617 365.081 247.46V247.862Z" fill="#FAFAFA"/>
<path d="M336.873 247.862H315.213V247.46C315.213 246.617 315.548 245.809 316.144 245.213C316.74 244.617 317.548 244.282 318.391 244.282H333.695C334.538 244.282 335.346 244.617 335.942 245.213C336.538 245.809 336.873 246.617 336.873 247.46V247.862Z" fill="#F0F0F0"/>
<path d="M151.044 74.3028V74.238C151.342 73.2393 151.627 72.2277 151.874 71.2161C152.313 71.9153 152.91 72.5015 153.618 72.9274C154.325 73.3532 155.123 73.6067 155.946 73.6673H156.297C158.462 73.4598 160.538 71.3587 161.848 68.0515C161.873 67.992 161.886 67.9281 161.886 67.8634C161.886 67.7988 161.873 67.7348 161.848 67.6754C161.785 67.5569 161.677 67.4683 161.549 67.4289C159.995 67.0349 158.374 66.9733 156.794 67.2482C155.214 67.5231 153.71 68.1283 152.38 69.0242C152.574 68.0645 152.743 67.0917 152.886 66.132C153.228 66.1979 153.575 66.2327 153.923 66.2357C157.451 66.2357 160.045 63.0841 160.174 62.9285C160.22 62.8713 160.252 62.8042 160.267 62.7326C160.282 62.661 160.28 62.5869 160.261 62.5162C160.242 62.4455 160.207 62.3803 160.158 62.3257C160.109 62.2712 160.048 62.2289 159.98 62.2022C159.16 61.7954 158.264 61.5665 157.35 61.5308C156.436 61.495 155.524 61.6531 154.675 61.9947C153.769 62.4555 153.037 63.1971 152.587 64.1087C151.926 62.0792 150.718 60.2715 149.096 58.8847C147.473 57.498 145.499 56.586 143.392 56.2492C143.326 56.2337 143.258 56.2338 143.193 56.2496C143.128 56.2654 143.067 56.2963 143.016 56.3399C142.961 56.3782 142.917 56.4286 142.885 56.4871C142.854 56.5456 142.836 56.6107 142.834 56.6771C142.652 59.8806 142.756 63.8104 145.156 65.6781C146.159 66.4182 147.386 66.7934 148.631 66.7416C149.748 66.7147 150.855 66.5402 151.926 66.2228C151.583 68.5406 151.085 70.8328 150.434 73.0837C148.087 69.8856 144.757 67.5441 140.953 66.4173C140.833 66.3893 140.707 66.4088 140.601 66.4716C140.494 66.5344 140.416 66.6357 140.383 66.7545C139.657 69.5171 140.033 71.7608 141.459 73.2393C142.185 73.8911 143.034 74.39 143.957 74.7065C144.879 75.0229 145.856 75.1503 146.829 75.081C147.874 75.0744 148.917 74.9658 149.941 74.7568C149.345 76.6503 148.644 78.505 147.983 80.2689C146.543 78.9719 142.302 75.7554 137.685 77.1043C137.561 77.1453 137.459 77.234 137.4 77.3507C137.374 77.4102 137.361 77.4741 137.361 77.5388C137.361 77.6034 137.374 77.6673 137.4 77.7268C138.697 80.7876 140.085 82.4867 141.874 83.0703C142.351 83.2276 142.851 83.3064 143.353 83.3037C144.723 83.2455 146.059 82.8537 147.244 82.1624C146.258 84.5099 145.208 86.7018 144.209 88.6472C143.024 87.4384 141.534 86.5715 139.898 86.1379C138.261 85.7042 136.538 85.7198 134.91 86.183C134.799 86.205 134.7 86.2678 134.632 86.359C134.565 86.4502 134.535 86.5632 134.546 86.6758C134.661 87.6567 135.032 88.5901 135.622 89.3823C136.211 90.1746 136.999 90.7977 137.906 91.1893C138.59 91.4834 139.327 91.6335 140.072 91.6302C141.105 91.6173 142.119 91.3547 143.029 90.865C142.017 92.7456 141.083 94.3149 140.357 95.5081H131.538C130.137 93.1088 128.516 90.1258 126.933 86.7796C127.67 86.9996 128.434 87.1174 129.203 87.1298C130.149 87.1415 131.085 86.9353 131.938 86.5272C132.791 86.119 133.539 85.5199 134.123 84.7762C134.708 84.0325 135.113 83.1642 135.308 82.2386C135.503 81.313 135.482 80.355 135.247 79.4388C135.217 79.3324 135.148 79.2407 135.055 79.181C134.962 79.1213 134.85 79.0977 134.741 79.1146C132.94 79.2902 131.208 79.8969 129.691 80.8835C128.174 81.87 126.917 83.2073 126.025 84.7823C124.988 82.4477 123.976 79.9706 123.094 77.4155C124.217 78.0543 125.475 78.4187 126.765 78.479C127.277 78.4849 127.786 78.4015 128.269 78.2326C130.863 77.3766 132.355 74.251 133.626 71.0086C133.654 70.95 133.669 70.8857 133.669 70.8205C133.669 70.7553 133.654 70.691 133.626 70.6324C133.596 70.5729 133.554 70.5203 133.502 70.4778C133.451 70.4354 133.391 70.4041 133.327 70.386C128.14 68.9334 123.873 73.9267 122.55 75.7165C121.858 73.557 121.282 71.362 120.825 69.1409C121.914 69.3542 123.021 69.4671 124.132 69.4781C125.235 69.5588 126.344 69.4116 127.388 69.0457C128.432 68.6798 129.39 68.103 130.202 67.3511C131.771 65.691 132.147 63.2009 131.304 60.166C131.289 60.1065 131.262 60.0506 131.225 60.0018C131.188 59.953 131.141 59.9122 131.088 59.8819C131.035 59.8516 130.976 59.8324 130.915 59.8255C130.854 59.8186 130.792 59.8241 130.733 59.8417C126.595 61.1333 122.992 63.7432 120.474 67.2733L120.28 66.0931C120.266 65.991 120.221 65.8957 120.15 65.8207C119.936 65.0533 119.564 64.3394 119.057 63.725C118.549 63.1106 117.919 62.6095 117.206 62.2541C116.271 61.8931 115.269 61.7342 114.268 61.7879C113.266 61.8415 112.287 62.1065 111.396 62.5653C111.327 62.595 111.266 62.6394 111.217 62.6955C111.167 62.7515 111.131 62.8178 111.11 62.8896C111.094 62.96 111.096 63.0333 111.114 63.1032C111.132 63.1731 111.166 63.2377 111.214 63.2916C111.344 63.4603 114.197 66.8323 118.036 66.8323C118.45 66.827 118.862 66.7836 119.268 66.7026C119.437 67.8051 119.644 68.9075 119.878 69.9969C118.399 69.0233 116.73 68.3742 114.982 68.0925C113.234 67.8108 111.446 67.9029 109.736 68.3628C109.607 68.4021 109.5 68.4908 109.437 68.6092C109.412 68.6708 109.398 68.7369 109.398 68.8037C109.398 68.8705 109.412 68.9366 109.437 68.9983C110.929 72.6038 113.237 74.8865 115.624 75.081H115.948C117.154 75.081 118.788 74.5233 120.449 72.3055C121.102 74.8273 121.89 77.3123 122.809 79.7501C120.565 78.6866 115.52 76.8579 111.915 79.6463C111.865 79.6822 111.823 79.7276 111.792 79.78C111.76 79.8324 111.739 79.8906 111.731 79.9512C111.723 80.0118 111.726 80.0734 111.742 80.1325C111.758 80.1915 111.786 80.2467 111.824 80.2948C114.158 83.4723 116.311 85.0157 118.425 85.0157C120.176 85.0157 121.849 83.9133 123.522 81.7344C124.482 84.1208 125.52 86.4035 126.544 88.5045C124.301 87.1168 121.836 87.3373 118.931 89.166C118.864 89.2063 118.808 89.2633 118.77 89.3315C118.731 89.3997 118.711 89.4767 118.711 89.5551C118.705 89.6314 118.721 89.7078 118.755 89.7762C118.789 89.8446 118.841 89.9026 118.905 89.9442C120.635 91.1914 122.679 91.9323 124.806 92.0842C125.904 92.106 126.98 91.779 127.88 91.1503C128.71 92.7456 129.527 94.2112 130.279 95.5211H126.272V97.8038H127.724L128.931 109.891H146.686L147.879 97.8038H149.345V95.5211H141.369C142.25 94.0555 143.379 92.0971 144.585 89.8015C144.621 89.7553 144.647 89.7024 144.663 89.6459C144.974 89.0622 145.272 88.4656 145.584 87.8431C146.111 88.6412 146.822 89.3013 147.657 89.7684C148.492 90.2355 149.426 90.4959 150.382 90.5278C150.581 90.5407 150.78 90.5407 150.979 90.5278C152.036 90.4081 153.038 89.9981 153.876 89.3434C154.714 88.6887 155.354 87.8148 155.726 86.8185C155.764 86.7161 155.764 86.6034 155.726 86.5009C155.688 86.3985 155.614 86.3132 155.518 86.2608C154.158 85.4926 152.635 85.059 151.075 84.9959C149.514 84.9328 147.961 85.2419 146.543 85.8977C147.218 84.484 147.84 82.9665 148.515 81.3972C148.566 81.339 148.597 81.2665 148.606 81.1897C148.787 80.7487 148.956 80.3078 149.137 79.8927C150.681 81.8382 152.211 82.7979 153.806 82.7979C155.739 82.7979 157.697 81.3713 159.798 78.4272C159.871 78.3288 159.903 78.2057 159.886 78.0843C159.869 77.963 159.805 77.8533 159.708 77.7787C156.4 75.3015 151.926 77.0005 149.825 77.9862C150.253 76.8189 150.642 75.6387 151.005 74.4325L151.044 74.3028Z" fill="#E0E0E0"/>
<path d="M521.988 68.8297H455.661V141.654H521.988V68.8297Z" fill="#E0E0E0"/>
<path d="M513.804 71.8127C513.749 71.8259 513.691 71.8259 513.635 71.8127C513.48 71.7089 497.812 62.3968 492.884 62.3968C487.956 62.3968 472.976 71.7089 472.82 71.7997C472.785 71.8231 472.745 71.839 472.703 71.8465C472.661 71.8539 472.618 71.8527 472.577 71.843C472.536 71.8333 472.497 71.8152 472.463 71.79C472.429 71.7647 472.4 71.7327 472.379 71.696C472.335 71.6235 472.322 71.5368 472.341 71.4544C472.361 71.372 472.411 71.3004 472.483 71.255C473.105 70.8659 487.722 61.7483 492.884 61.7483C498.046 61.7483 513.376 70.827 514.024 71.255C514.061 71.2763 514.093 71.3048 514.118 71.3389C514.144 71.3729 514.162 71.4118 514.172 71.4531C514.181 71.4944 514.182 71.5372 514.175 71.579C514.168 71.6208 514.152 71.6606 514.128 71.696C514.092 71.7452 514.041 71.7825 513.984 71.8033C513.926 71.8241 513.863 71.8273 513.804 71.8127Z" fill="#EBEBEB"/>
<path d="M529.16 68.8297H460.654V141.654H529.16V68.8297Z" fill="#F5F5F5"/>
<path d="M523.427 135.908V74.5623H466.4V135.908H523.427Z" fill="white"/>
<path d="M505.958 116.287C512.062 110.184 512.062 100.289 505.958 94.1853C499.855 88.082 489.96 88.082 483.857 94.1853C477.753 100.289 477.753 110.184 483.857 116.287C489.96 122.39 499.855 122.39 505.958 116.287Z" fill="#E0E0E0"/>
<path d="M493.584 336.237H551.714C557.047 336.241 562.17 334.153 565.98 330.42C569.79 326.688 571.984 321.609 572.089 316.277L574.268 209.848C574.308 207.873 573.953 205.91 573.224 204.074C572.496 202.237 571.408 200.565 570.025 199.154C568.642 197.743 566.992 196.623 565.17 195.858C563.349 195.093 561.393 194.699 559.418 194.7H522.973C519.327 194.699 515.808 196.04 513.088 198.468C510.368 200.897 508.638 204.241 508.227 207.864L493.584 336.237Z" fill="#E6E6E6"/>
<path d="M525.308 336.237H463.365C462.594 336.237 461.855 335.931 461.311 335.386C460.766 334.841 460.46 334.102 460.46 333.332V333.059C460.46 330.947 461.299 328.922 462.792 327.428C464.285 325.935 466.311 325.096 468.423 325.096H525.308V336.237Z" fill="#E6E6E6"/>
<path d="M520.418 426.077C520.117 426.084 519.822 425.985 519.585 425.798C519.349 425.611 519.184 425.348 519.121 425.053L500.964 337.534H469.318L451.16 425.053C451.09 425.397 450.886 425.699 450.593 425.892C450.3 426.085 449.942 426.154 449.598 426.084C449.254 426.013 448.952 425.809 448.758 425.516C448.565 425.223 448.496 424.865 448.567 424.521L466.957 335.978C467.018 335.68 467.181 335.413 467.418 335.224C467.655 335.034 467.951 334.934 468.254 334.94H501.975C502.279 334.934 502.575 335.034 502.812 335.224C503.049 335.413 503.212 335.68 503.272 335.978L521.65 424.521C521.719 424.856 521.653 425.205 521.466 425.492C521.279 425.779 520.986 425.98 520.652 426.051C520.575 426.069 520.497 426.078 520.418 426.077Z" fill="#E6E6E6"/>
<path d="M500.691 426.077C500.605 426.09 500.518 426.09 500.432 426.077C500.265 426.043 500.106 425.977 499.965 425.881C499.824 425.786 499.703 425.664 499.609 425.522C499.515 425.38 499.45 425.22 499.418 425.053C499.385 424.886 499.386 424.714 499.42 424.547L517.811 336.003C517.872 335.706 518.035 335.439 518.272 335.25C518.509 335.06 518.805 334.96 519.108 334.966H552.829C553.133 334.96 553.429 335.06 553.665 335.25C553.902 335.439 554.065 335.706 554.126 336.003L572.504 424.547C572.539 424.717 572.54 424.893 572.507 425.063C572.474 425.234 572.408 425.397 572.312 425.542C572.216 425.687 572.093 425.812 571.949 425.909C571.805 426.007 571.643 426.075 571.473 426.11C571.303 426.145 571.127 426.146 570.956 426.113C570.786 426.08 570.623 426.014 570.478 425.918C570.333 425.822 570.208 425.699 570.111 425.555C570.013 425.411 569.945 425.249 569.91 425.079L551.753 337.56H520.081L501.923 425.079C501.857 425.358 501.701 425.608 501.478 425.788C501.255 425.969 500.978 426.071 500.691 426.077Z" fill="#E6E6E6"/>
<path d="M335.24 481.195C474.122 481.195 586.708 474.622 586.708 466.514C586.708 458.405 474.122 451.832 335.24 451.832C196.358 451.832 83.7725 458.405 83.7725 466.514C83.7725 474.622 196.358 481.195 335.24 481.195Z" fill="#F5F5F5"/>
<path d="M357.431 454.53C357.025 454.529 356.631 454.388 356.317 454.13C356.002 453.873 355.787 453.515 355.706 453.116L331.064 331.773H288.147L263.505 453.116C263.388 453.549 263.11 453.92 262.729 454.155C262.348 454.39 261.891 454.472 261.452 454.382C261.013 454.293 260.624 454.041 260.365 453.675C260.106 453.31 259.995 452.86 260.055 452.416L284.983 329.659C285.066 329.262 285.282 328.905 285.596 328.647C285.91 328.39 286.302 328.248 286.708 328.245H332.49C332.897 328.246 333.29 328.387 333.605 328.645C333.919 328.902 334.135 329.26 334.215 329.659L359.156 452.416C359.248 452.873 359.155 453.348 358.897 453.737C358.639 454.126 358.238 454.397 357.781 454.491L357.431 454.53Z" fill="#407BFF"/>
<path d="M288.549 454.53C288.144 454.527 287.751 454.385 287.437 454.128C287.124 453.87 286.907 453.513 286.824 453.116L262.182 331.773H219.266L194.623 453.116C194.591 453.355 194.51 453.585 194.385 453.792C194.26 453.998 194.094 454.177 193.897 454.316C193.7 454.456 193.477 454.554 193.241 454.604C193.005 454.654 192.761 454.655 192.525 454.607C192.288 454.559 192.064 454.463 191.866 454.325C191.668 454.187 191.501 454.01 191.374 453.804C191.248 453.599 191.165 453.37 191.13 453.131C191.095 452.892 191.11 452.649 191.174 452.416L216.114 329.659C216.195 329.26 216.41 328.902 216.725 328.645C217.039 328.387 217.433 328.246 217.839 328.245H263.622C264.027 328.246 264.418 328.388 264.73 328.646C265.043 328.904 265.256 329.261 265.334 329.659L290.274 452.416C290.366 452.873 290.273 453.348 290.015 453.737C289.758 454.126 289.356 454.397 288.899 454.491L288.549 454.53Z" fill="#407BFF"/>
<path d="M298.186 330.022H219.331C212.093 330.023 205.143 327.187 199.973 322.121C194.803 317.055 191.826 310.165 191.68 302.928L188.748 183.089C188.693 180.41 189.173 177.748 190.16 175.257C191.146 172.766 192.62 170.497 194.494 168.582C196.369 166.668 198.607 165.147 201.076 164.108C203.546 163.069 206.198 162.534 208.877 162.532H258.317C263.265 162.536 268.039 164.359 271.73 167.654C275.42 170.95 277.769 175.488 278.329 180.404L298.186 330.022Z" fill="#407BFF"/>
<path d="M255.179 314.847H332.348C335.213 314.847 337.961 315.986 339.987 318.012C342.013 320.038 343.152 322.786 343.152 325.651V326.027C343.152 327.059 342.742 328.049 342.012 328.778C341.282 329.508 340.293 329.918 339.261 329.918H255.179V314.847Z" fill="#407BFF"/>
<g opacity="0.3">
<path opacity="0.3" d="M357.431 454.53C357.025 454.529 356.631 454.388 356.317 454.13C356.002 453.873 355.787 453.514 355.706 453.116L331.064 331.773H288.147L263.505 453.116C263.388 453.549 263.11 453.92 262.729 454.155C262.348 454.39 261.891 454.471 261.452 454.382C261.013 454.293 260.624 454.04 260.365 453.675C260.106 453.31 259.995 452.86 260.055 452.416L284.983 329.659C285.066 329.261 285.282 328.905 285.596 328.647C285.91 328.39 286.302 328.248 286.708 328.245H332.49C332.897 328.246 333.29 328.387 333.605 328.644C333.919 328.902 334.135 329.26 334.215 329.659L359.156 452.416C359.248 452.873 359.155 453.348 358.897 453.737C358.639 454.126 358.238 454.397 357.781 454.491L357.431 454.53Z" fill="black"/>
<path opacity="0.3" d="M288.549 454.53C288.144 454.527 287.751 454.385 287.437 454.127C287.124 453.87 286.907 453.513 286.824 453.116L262.182 331.773H219.266L194.623 453.116C194.591 453.355 194.51 453.585 194.385 453.792C194.26 453.998 194.094 454.177 193.897 454.316C193.7 454.456 193.477 454.554 193.241 454.604C193.005 454.654 192.761 454.655 192.525 454.607C192.288 454.559 192.064 454.463 191.866 454.325C191.668 454.187 191.501 454.009 191.374 453.804C191.248 453.599 191.165 453.37 191.13 453.131C191.095 452.892 191.11 452.649 191.174 452.416L216.114 329.659C216.195 329.26 216.41 328.902 216.725 328.644C217.039 328.387 217.433 328.246 217.839 328.245H263.622C264.027 328.246 264.418 328.388 264.73 328.646C265.043 328.903 265.256 329.261 265.334 329.659L290.274 452.416C290.366 452.873 290.273 453.348 290.015 453.737C289.758 454.126 289.356 454.397 288.899 454.491L288.549 454.53Z" fill="black"/>
<path opacity="0.3" d="M298.186 330.022H219.331C212.093 330.023 205.143 327.187 199.973 322.121C194.803 317.055 191.826 310.165 191.68 302.928L188.748 183.089C188.693 180.41 189.173 177.748 190.16 175.257C191.146 172.766 192.62 170.497 194.494 168.582C196.369 166.668 198.607 165.147 201.076 164.108C203.546 163.069 206.198 162.534 208.877 162.532H258.317C263.265 162.536 268.039 164.359 271.73 167.654C275.42 170.95 277.769 175.488 278.329 180.404L298.186 330.022Z" fill="black"/>
<path opacity="0.3" d="M255.179 314.847H332.348C335.213 314.847 337.961 315.986 339.987 318.012C342.013 320.038 343.152 322.786 343.152 325.651V326.027C343.152 327.059 342.742 328.049 342.012 328.778C341.282 329.508 340.293 329.918 339.261 329.918H255.179V314.847Z" fill="black"/>
</g>
<path d="M276.241 155.918C276.241 155.918 287.266 170.314 280.132 198.977C272.999 227.64 236.191 212.076 233.96 186.241C231.367 155.788 265.554 176.786 271.572 149.705L276.241 155.918Z" fill="#263238"/>
<path d="M268.239 147.371C263.454 150.743 261.56 155.646 266.852 160.444C272.143 165.243 279.691 165.087 281.974 163.116C284.257 161.145 283.803 151.132 283.803 151.132L268.239 147.371Z" fill="#407BFF"/>
<path opacity="0.8" d="M268.239 147.371C263.454 150.743 261.56 155.646 266.852 160.444C272.143 165.243 279.691 165.087 281.974 163.116C284.257 161.145 283.803 151.132 283.803 151.132L268.239 147.371Z" fill="white"/>
<path d="M328.678 211.168C328.807 211.752 329.028 212.66 329.235 213.425L329.858 215.863C330.299 217.498 330.779 219.132 331.285 220.766C332.244 224.06 333.308 227.342 334.423 230.623C335.539 233.904 336.68 237.108 337.925 240.428C338.535 242.049 339.144 243.683 339.793 245.304L340.545 247.25C340.695 247.583 340.892 247.893 341.128 248.171C342.975 250.038 345.224 251.458 347.704 252.321C350.733 253.54 353.856 254.512 357.042 255.226C360.336 255.991 363.722 256.627 367.145 257.159C370.569 257.69 374.084 258.118 377.456 258.456L377.573 265.433C370.174 266.199 362.716 266.199 355.317 265.433C351.45 265.035 347.626 264.292 343.891 263.215C341.868 262.605 339.898 261.828 338.003 260.894C335.82 259.833 333.823 258.428 332.089 256.731C331.082 255.728 330.21 254.599 329.495 253.372C329.3 253.06 329.132 252.71 328.95 252.386L328.613 251.686L328.016 250.389C327.212 248.741 326.408 247.094 325.669 245.421C324.164 242.075 322.699 238.703 321.389 235.266C320.079 231.829 318.795 228.366 317.705 224.89C317.174 223.1 316.655 221.324 316.175 219.495L315.462 216.758C315.254 215.773 315.06 214.956 314.852 213.788L328.678 211.168Z" fill="#E58A7B"/>
<path d="M324.268 196.435C329.832 197.849 333.71 220.727 333.71 220.727L318.392 231.103C318.392 231.103 303.698 208.017 308.017 201.908C312.439 195.631 316.149 194.412 324.268 196.435Z" fill="#407BFF"/>
<path opacity="0.5" d="M324.268 196.435C329.832 197.849 333.71 220.727 333.71 220.727L318.392 231.103C318.392 231.103 303.698 208.017 308.017 201.908C312.439 195.631 316.149 194.412 324.268 196.435Z" fill="white"/>
<path opacity="0.2" d="M322.27 202.193L308.951 212.751C311.545 219.164 314.7 225.335 318.38 231.194L329.002 223.969L322.27 202.193Z" fill="#407BFF"/>
<path d="M324.268 196.435C324.268 196.435 330.753 198.692 317.783 277.845H263.025C263.946 255.55 263.972 241.803 253.324 196.033C260.992 194.454 268.764 193.431 276.579 192.972C284.864 192.381 293.182 192.381 301.467 192.972C312.154 193.997 324.268 196.435 324.268 196.435Z" fill="#407BFF"/>
<path opacity="0.5" d="M324.268 196.435C324.268 196.435 330.753 198.692 317.783 277.845H263.025C263.946 255.55 263.972 241.803 253.324 196.033C260.992 194.454 268.764 193.431 276.579 192.972C284.864 192.381 293.182 192.381 301.467 192.972C312.154 193.997 324.268 196.435 324.268 196.435Z" fill="white"/>
<path d="M375.446 258.391L385.004 248.689L386.301 262.359C386.301 262.359 379.129 267.21 374.175 264.603L375.446 258.391Z" fill="#E58A7B"/>
<path d="M396.288 247.25L396.716 258.741L386.288 262.359L385.03 248.689L396.288 247.25Z" fill="#E58A7B"/>
<path d="M379.933 441.949H393.421L395.497 410.706H382.008L379.933 441.949Z" fill="#E58A7B"/>
<path d="M327.73 441.949H341.219L345.551 410.706H332.062L327.73 441.949Z" fill="#E58A7B"/>
<path d="M342.062 440.38H326.901C326.639 440.375 326.385 440.465 326.187 440.635C325.988 440.805 325.859 441.042 325.824 441.301L324.099 453.298C324.068 453.601 324.101 453.907 324.196 454.196C324.291 454.486 324.445 454.752 324.649 454.978C324.853 455.205 325.103 455.385 325.381 455.509C325.659 455.633 325.96 455.697 326.265 455.697C331.544 455.606 334.047 455.295 340.752 455.295C344.85 455.295 355.369 455.723 361.037 455.723C366.704 455.723 367.003 450.12 364.642 449.615C354.072 447.332 347.872 444.206 344.306 441.21C343.68 440.676 342.885 440.382 342.062 440.38Z" fill="#263238"/>
<path d="M394.472 440.38H379.337C379.076 440.377 378.823 440.469 378.625 440.639C378.428 440.808 378.298 441.043 378.26 441.301L376.535 453.298C376.504 453.601 376.537 453.907 376.632 454.196C376.727 454.486 376.881 454.752 377.085 454.978C377.29 455.204 377.539 455.385 377.817 455.509C378.095 455.633 378.396 455.697 378.701 455.697C383.98 455.606 386.483 455.295 393.188 455.295C397.299 455.295 405.769 455.723 411.436 455.723C417.104 455.723 417.402 450.12 415.042 449.614C404.472 447.332 400.308 444.206 396.755 441.21C396.117 440.671 395.307 440.377 394.472 440.38Z" fill="#263238"/>
<path d="M313.516 137.709C318.366 138.02 320.831 162.351 306.603 160.937C292.375 159.523 313.516 137.709 313.516 137.709Z" fill="#263238"/>
<path d="M395.497 410.706L394.421 426.814H380.932L381.996 410.706H395.497Z" fill="#CF6F64"/>
<path d="M332.063 410.706H345.564L343.32 426.814H329.819L332.063 410.706Z" fill="#CF6F64"/>
<path opacity="0.2" d="M258.797 221.479C260.094 228.12 261.015 233.852 261.716 239.014L264.919 214.229L258.797 221.479Z" fill="#407BFF"/>
<path d="M279.043 165.01C280.612 173.012 282.181 187.68 276.579 193.024C276.579 193.024 278.77 201.143 293.647 201.143C310.001 201.143 301.428 193.024 301.428 193.024C292.492 190.897 292.726 184.27 294.282 178.057L279.043 165.01Z" fill="#E58A7B"/>
<path d="M290.689 202.881L295.67 201.091L295.008 199.729L290.689 202.881Z" fill="#263238"/>
<path d="M300.352 201.843L295.67 201.091L296.682 199.574L300.352 201.843Z" fill="#263238"/>
<path d="M278.394 189.25L275.009 192.544C274.908 192.648 274.851 192.788 274.851 192.933C274.851 193.078 274.908 193.218 275.009 193.322L289.276 209.573C289.954 205.714 292.021 202.235 295.086 199.794C283.284 195.332 280.21 190.715 279.159 189.418C279.135 189.343 279.091 189.275 279.033 189.222C278.974 189.169 278.903 189.132 278.825 189.115C278.748 189.098 278.667 189.101 278.592 189.125C278.516 189.148 278.448 189.192 278.394 189.25Z" fill="#407BFF"/>
<path d="M298.783 191.74L302.985 192.881C303.111 192.916 303.225 192.984 303.316 193.077C303.407 193.171 303.472 193.287 303.504 193.413C304.691 198.743 304.467 204.291 302.855 209.508C302.259 207.304 300.261 202.025 296.682 199.574C300.573 196.889 299.003 193.426 298.446 192.116C298.427 192.067 298.423 192.015 298.433 191.963C298.442 191.912 298.466 191.865 298.5 191.826C298.535 191.787 298.58 191.759 298.63 191.744C298.679 191.729 298.732 191.727 298.783 191.74Z" fill="#407BFF"/>
<path d="M285.281 170.327L294.36 178.044C293.983 179.49 293.727 180.965 293.595 182.454C290.184 181.961 285.502 178.226 285.138 174.672C284.916 173.227 284.965 171.754 285.281 170.327Z" fill="#CF6F64"/>
<path d="M278.174 143.921C276.63 157.215 275.683 162.818 281.131 170.755C289.302 182.7 305.98 181.688 311.467 169.121C316.408 157.811 318.094 137.994 306.162 130.42C303.537 128.744 300.528 127.768 297.419 127.583C294.311 127.399 291.207 128.012 288.402 129.365C285.598 130.718 283.186 132.765 281.396 135.313C279.605 137.861 278.496 140.824 278.174 143.921Z" fill="#E58A7B"/>
<path d="M308.575 121.964C286.591 113.287 270.081 123.079 266.67 136.995C261.313 158.603 278.42 160.12 278.42 160.12L280.56 154.595C283.634 156.45 292.233 155.633 289.639 139.589C288.109 130.51 299.6 143.156 314.178 141.742C318.055 141.366 323.36 127.8 308.575 121.964Z" fill="#263238"/>
<path d="M316.058 127.307C313.166 122.858 307.252 119.045 294.996 117.243C294.996 117.243 301.364 118.682 303.426 123.338C305.488 127.994 319.547 132.663 316.058 127.307Z" fill="#263238"/>
<path d="M273.946 155.425C273.856 156.704 274.02 157.987 274.427 159.202C274.834 160.418 275.477 161.54 276.319 162.507C278.589 165.1 281.572 163.505 282.506 160.392C283.336 157.578 283.167 152.857 280.132 151.43C277.097 150.004 274.192 152.261 273.946 155.425Z" fill="#E58A7B"/>
<path d="M317.822 277.897C317.822 277.897 408.272 286.314 407.39 327.441C406.469 370.241 397.313 423.701 397.313 423.701H378.623C378.623 423.701 377.028 378.463 376.483 336.325C376.211 314.38 288.809 309.984 288.809 309.984L277.525 277.897H317.822Z" fill="#263238"/>
<path d="M303.348 277.897C303.348 277.897 361.802 297.287 363.281 321.28C365.991 365.455 346.576 423.74 346.576 423.74H328.172C328.172 423.74 329.222 385.091 331.414 345.067C334.19 294.77 245.452 344.366 263.026 277.936L303.348 277.897Z" fill="#263238"/>
<path d="M297.408 151.171C297.213 152.235 297.628 153.207 298.329 153.337C299.029 153.467 299.742 152.689 299.937 151.625C300.131 150.561 299.716 149.576 299.016 149.459C298.316 149.342 297.628 150.095 297.408 151.171Z" fill="#263238"/>
<path d="M309.508 153.337C309.314 154.4 309.729 155.373 310.429 155.503C311.13 155.633 311.856 154.854 312.05 153.791C312.245 152.727 311.83 151.742 311.13 151.625C310.429 151.508 309.703 152.26 309.508 153.337Z" fill="#263238"/>
<path d="M310.805 151.625L313.516 151.34C313.516 151.34 311.895 153.116 310.805 151.625Z" fill="#263238"/>
<path d="M305.981 154.595C306.5 157.209 307.372 159.739 308.574 162.117C307.964 162.395 307.3 162.539 306.629 162.539C305.958 162.539 305.294 162.395 304.684 162.117L305.981 154.595Z" fill="#DF5753"/>
<path d="M300.222 165.58C298.799 165.355 297.449 164.796 296.282 163.951C295.114 163.106 294.163 161.998 293.504 160.717C293.482 160.667 293.48 160.61 293.5 160.559C293.519 160.508 293.558 160.467 293.608 160.444C293.659 160.426 293.716 160.428 293.766 160.45C293.817 160.472 293.857 160.511 293.88 160.561C294.504 161.772 295.402 162.821 296.503 163.622C297.604 164.424 298.878 164.957 300.222 165.178C300.276 165.191 300.323 165.223 300.355 165.269C300.386 165.314 300.399 165.37 300.391 165.425C300.381 165.464 300.36 165.5 300.33 165.528C300.3 165.556 300.262 165.574 300.222 165.58Z" fill="#263238"/>
<path d="M294.567 146.385C294.511 146.387 294.455 146.377 294.403 146.354C294.352 146.332 294.306 146.298 294.269 146.256C294.23 146.219 294.198 146.175 294.177 146.126C294.156 146.077 294.145 146.024 294.145 145.97C294.145 145.917 294.156 145.864 294.177 145.815C294.198 145.765 294.23 145.721 294.269 145.685C294.968 145.002 295.82 144.497 296.755 144.213C297.689 143.929 298.678 143.873 299.639 144.051C299.74 144.081 299.826 144.149 299.879 144.24C299.932 144.332 299.948 144.441 299.924 144.544C299.912 144.596 299.889 144.645 299.858 144.689C299.826 144.732 299.786 144.769 299.74 144.797C299.694 144.825 299.643 144.843 299.59 144.851C299.537 144.858 299.483 144.855 299.431 144.842C298.602 144.695 297.751 144.75 296.947 145C296.144 145.251 295.412 145.69 294.814 146.282C294.744 146.341 294.658 146.377 294.567 146.385Z" fill="#263238"/>
<path d="M316.123 148.512C316.042 148.515 315.963 148.493 315.896 148.449C315.828 148.405 315.776 148.341 315.747 148.266C315.43 147.487 314.933 146.795 314.298 146.245C313.662 145.695 312.905 145.303 312.089 145.101C311.984 145.082 311.89 145.023 311.827 144.936C311.764 144.849 311.737 144.741 311.752 144.634C311.771 144.526 311.832 144.43 311.922 144.366C312.012 144.303 312.124 144.278 312.232 144.297C313.182 144.517 314.065 144.964 314.806 145.598C315.546 146.233 316.123 147.037 316.486 147.942C316.53 148.041 316.533 148.155 316.494 148.257C316.455 148.358 316.378 148.441 316.279 148.486L316.123 148.512Z" fill="#263238"/>
<path d="M261.508 215.604C260.327 219.495 259.056 223.386 257.928 227.38C256.8 231.375 255.607 235.266 254.582 239.222C253.557 243.177 252.585 247.094 251.858 250.894C251.508 252.814 251.184 254.72 251.002 256.51C250.899 257.405 250.847 258.248 250.834 259.026C250.834 259.208 250.834 259.026 250.704 258.728C250.546 258.376 250.326 258.056 250.056 257.781C249.394 257.21 249.148 257.314 249.446 257.405C249.989 257.537 250.548 257.594 251.106 257.574C252.852 257.514 254.589 257.292 256.294 256.912C260.157 256.061 263.964 254.974 267.694 253.657C275.359 251.063 283.141 247.898 290.715 244.669L294.061 250.778C286.875 255.488 279.365 259.684 271.585 263.332C267.557 265.232 263.401 266.849 259.147 268.17C256.779 268.891 254.347 269.382 251.884 269.635C250.347 269.793 248.795 269.754 247.267 269.519C246.253 269.367 245.264 269.083 244.323 268.676C243.107 268.15 242.006 267.392 241.081 266.445C239.282 264.549 238.251 262.053 238.188 259.441C238.124 258.144 238.111 256.847 238.188 255.68C238.279 253.281 238.5 251.011 238.798 248.793C239.42 244.358 240.225 240.078 241.21 235.824C242.196 231.57 243.247 227.458 244.401 223.334C245.555 219.21 246.8 215.163 248.292 211.039L261.508 215.604Z" fill="#E58A7B"/>
<path d="M346.679 442.65C345.484 442.62 344.296 442.455 343.139 442.157C343.095 442.149 343.055 442.128 343.024 442.097C342.993 442.065 342.972 442.026 342.963 441.982C342.955 441.939 342.96 441.894 342.977 441.854C342.995 441.813 343.024 441.779 343.061 441.755C343.515 441.457 347.561 438.837 349.105 439.524C349.266 439.597 349.405 439.713 349.506 439.86C349.606 440.006 349.665 440.177 349.675 440.354C349.74 440.642 349.728 440.942 349.642 441.224C349.555 441.506 349.397 441.76 349.182 441.962C348.455 442.479 347.569 442.723 346.679 442.65ZM343.761 441.846C346.264 442.365 348.145 442.3 348.871 441.625C349.029 441.472 349.145 441.28 349.209 441.069C349.273 440.858 349.281 440.634 349.234 440.419C349.229 440.317 349.197 440.218 349.139 440.134C349.082 440.049 349.003 439.982 348.91 439.939C347.924 439.498 345.188 440.964 343.761 441.846Z" fill="#407BFF"/>
<path d="M343.191 442.17H343.074C343.038 442.149 343.008 442.119 342.987 442.082C342.966 442.046 342.956 442.004 342.957 441.962C342.957 441.807 342.957 437.968 344.41 436.697C344.58 436.534 344.786 436.412 345.011 436.343C345.236 436.273 345.474 436.256 345.707 436.295C345.94 436.293 346.168 436.372 346.35 436.518C346.532 436.665 346.657 436.87 346.705 437.099C346.978 438.5 344.721 441.366 343.307 442.17H343.191ZM345.473 436.697C345.188 436.699 344.914 436.81 344.708 437.008C343.683 437.916 343.476 440.484 343.411 441.508C344.708 440.575 346.446 438.214 346.225 437.164C346.225 436.995 346.096 436.775 345.629 436.71L345.473 436.697Z" fill="#407BFF"/>
<path d="M399.544 442.65C398.118 442.618 396.699 442.458 395.302 442.17C395.257 442.158 395.215 442.134 395.183 442.099C395.151 442.065 395.129 442.022 395.121 441.975C395.114 441.928 395.123 441.879 395.146 441.837C395.17 441.795 395.206 441.761 395.251 441.742C395.847 441.431 401.178 438.707 402.799 439.589C402.94 439.667 403.059 439.779 403.145 439.915C403.231 440.051 403.281 440.207 403.292 440.367C403.328 440.637 403.298 440.912 403.203 441.168C403.108 441.424 402.951 441.652 402.747 441.833C401.804 442.463 400.673 442.751 399.544 442.65ZM396.055 441.846C397.793 442.144 401.243 442.572 402.436 441.508C402.585 441.369 402.699 441.197 402.769 441.005C402.838 440.814 402.862 440.608 402.838 440.406C402.837 440.318 402.812 440.232 402.766 440.157C402.721 440.081 402.656 440.02 402.578 439.978C401.515 439.407 397.935 440.925 396.055 441.846Z" fill="#407BFF"/>
<path d="M395.354 442.17C395.312 442.183 395.267 442.183 395.224 442.17C395.193 442.145 395.167 442.114 395.149 442.078C395.131 442.042 395.122 442.003 395.121 441.962C395.121 441.807 395.445 438.214 397.105 436.775C397.338 436.576 397.608 436.428 397.901 436.339C398.193 436.25 398.5 436.221 398.804 436.256C399.634 436.334 399.867 436.749 399.932 437.073C400.166 438.564 397.027 441.418 395.445 442.131L395.354 442.17ZM398.558 436.697C398.131 436.695 397.72 436.852 397.403 437.138C396.184 438.149 395.756 440.575 395.626 441.547C397.325 440.601 399.647 438.162 399.517 437.164C399.517 437.06 399.517 436.775 398.804 436.71L398.558 436.697Z" fill="#407BFF"/>
<path d="M290.404 244.876L303.192 241.634L297.096 253.916C297.096 253.916 288.446 254.292 285.592 249.468L290.404 244.876Z" fill="#E58A7B"/>
<path d="M313.529 246.29L307.874 256.303L297.097 253.916L303.192 241.634L313.529 246.29Z" fill="#E58A7B"/>
<path d="M298.692 149.459L301.403 149.174C301.403 149.174 299.729 150.951 298.692 149.459Z" fill="#263238"/>
<path d="M262.208 274.681L261.767 279.583C261.586 279.972 262.027 280.361 262.662 280.361H318.094C318.587 280.361 318.989 280.115 319.028 279.804L319.521 274.901C319.521 274.564 319.119 274.278 318.587 274.278H263.103C262.932 274.264 262.76 274.293 262.604 274.364C262.447 274.434 262.311 274.543 262.208 274.681Z" fill="#407BFF"/>
<path d="M269.666 280.893H268.174C267.876 280.893 267.656 280.737 267.669 280.556L268.369 274.175C268.369 273.993 268.654 273.838 268.953 273.838H270.392C270.69 273.838 270.911 273.993 270.898 274.175L270.198 280.556C270.211 280.737 269.951 280.893 269.666 280.893Z" fill="#263238"/>
<path d="M313.918 280.893H312.427C312.128 280.893 311.908 280.737 311.921 280.556L312.621 274.175C312.621 273.993 312.907 273.838 313.205 273.838H314.683C314.982 273.838 315.202 273.993 315.189 274.175L314.489 280.556C314.489 280.737 314.204 280.893 313.918 280.893Z" fill="#263238"/>
<path d="M291.792 280.893H290.3C290.002 280.893 289.782 280.737 289.794 280.556L290.495 274.175C290.495 273.993 290.78 273.838 291.078 273.838H292.557C292.855 273.838 293.076 273.993 293.063 274.175L292.362 280.556C292.337 280.737 292.09 280.893 291.792 280.893Z" fill="#263238"/>
<path d="M253.324 196.085C247.825 197.758 241.236 216.655 241.236 216.655L258.94 233.943C258.94 233.943 270.301 216.11 268.019 209.015C265.593 201.623 259.588 194.191 253.324 196.085Z" fill="#407BFF"/>
<path opacity="0.5" d="M253.324 196.085C247.825 197.758 241.236 216.655 241.236 216.655L258.94 233.943C258.94 233.943 270.301 216.11 268.019 209.015C265.593 201.623 259.588 194.191 253.324 196.085Z" fill="white"/>
<path d="M547.501 264.422H444.314V465.126H547.501V264.422Z" fill="#407BFF"/>
<path opacity="0.6" d="M547.501 264.422H444.314V465.126H547.501V264.422Z" fill="white"/>
<path d="M347.6 264.422H244.414V465.126H347.6V264.422Z" fill="#407BFF"/>
<path opacity="0.6" d="M347.6 264.422H244.414V465.126H347.6V264.422Z" fill="white"/>
<path d="M551.366 264.422H542.857V465.126H551.366V264.422Z" fill="#407BFF"/>
<path opacity="0.3" d="M551.366 264.422H542.857V465.126H551.366V264.422Z" fill="black"/>
<path d="M348.832 279.479H553.999V264.422H348.832V279.479Z" fill="#407BFF"/>
<path opacity="0.3" d="M348.832 279.479H553.999V264.422H348.832V279.479Z" fill="black"/>
<path d="M351.478 264.422H342.97V465.126H351.478V264.422Z" fill="#407BFF"/>
<path opacity="0.3" d="M351.478 264.422H342.97V465.126H351.478V264.422Z" fill="black"/>
<path d="M348.34 312.435H547.112V269.078H348.34V312.435Z" fill="#407BFF"/>
<path opacity="0.3" d="M348.34 312.435H547.112V269.078H348.34V312.435Z" fill="black"/>
<path d="M547.553 470.963H490.266C486.377 470.959 482.648 469.413 479.897 466.662C477.147 463.912 475.601 460.183 475.597 456.294V275.55C475.597 272.11 474.231 268.811 471.799 266.379C469.366 263.946 466.068 262.58 462.628 262.58H445.482V261.283H462.615C466.398 261.283 470.027 262.786 472.703 265.462C475.378 268.137 476.881 271.766 476.881 275.55V456.294C476.885 459.839 478.295 463.238 480.802 465.745C483.309 468.252 486.708 469.662 490.253 469.666H547.553C548.528 469.667 549.479 469.361 550.27 468.791C551.061 468.221 551.651 467.415 551.957 466.489C552.264 465.564 552.27 464.565 551.975 463.635C551.68 462.706 551.099 461.893 550.315 461.313L551.08 460.276C552.081 461.018 552.822 462.057 553.199 463.245C553.575 464.433 553.568 465.71 553.177 466.893C552.786 468.077 552.033 469.107 551.023 469.837C550.013 470.568 548.799 470.962 547.553 470.963Z" fill="#407BFF"/>
<path opacity="0.3" d="M547.553 470.963H490.266C486.377 470.959 482.648 469.413 479.897 466.662C477.147 463.912 475.601 460.183 475.597 456.294V275.55C475.597 272.11 474.231 268.811 471.799 266.379C469.366 263.946 466.068 262.58 462.628 262.58H445.482V261.283H462.615C466.398 261.283 470.027 262.786 472.703 265.462C475.378 268.137 476.881 271.766 476.881 275.55V456.294C476.885 459.839 478.295 463.238 480.802 465.745C483.309 468.252 486.708 469.662 490.253 469.666H547.553C548.528 469.667 549.479 469.361 550.27 468.791C551.061 468.221 551.651 467.415 551.957 466.489C552.264 465.564 552.27 464.565 551.975 463.635C551.68 462.706 551.099 461.893 550.315 461.313L551.08 460.276C552.081 461.018 552.822 462.057 553.199 463.245C553.575 464.433 553.568 465.71 553.177 466.893C552.786 468.077 552.033 469.107 551.023 469.837C550.013 470.568 548.799 470.962 547.553 470.963Z" fill="black"/>
<path d="M555.905 323.641H554.608V348.711H555.905V323.641Z" fill="#407BFF"/>
<path opacity="0.3" d="M555.905 323.641H554.608V348.711H555.905V323.641Z" fill="black"/>
<path d="M555.905 308.843H554.608V315.431H555.905V308.843Z" fill="#407BFF"/>
<path opacity="0.3" d="M555.905 308.843H554.608V315.431H555.905V308.843Z" fill="black"/>
<path d="M460.916 204.502H364.759L350.83 261.283H446.973L460.916 204.502Z" fill="#407BFF"/>
<path opacity="0.4" d="M460.916 204.502H364.759L350.83 261.283H446.973L460.916 204.502Z" fill="white"/>
<path d="M353.774 261.283L353.385 264.421H315.656L316.045 261.283H353.774Z" fill="#407BFF"/>
<path opacity="0.4" d="M353.774 261.283L353.385 264.421H315.656L316.045 261.283H353.774Z" fill="white"/>
<path d="M449.93 261.283L449.541 264.421H353.385L353.774 261.283H449.93Z" fill="#407BFF"/>
<path opacity="0.5" d="M449.93 261.283L449.541 264.421H353.385L353.774 261.283H449.93Z" fill="black"/>
<path d="M463.873 204.502H367.716L353.787 261.283H449.93L463.873 204.502Z" fill="#407BFF"/>
<path opacity="0.5" d="M463.873 204.502H367.716L353.787 261.283H449.93L463.873 204.502Z" fill="black"/>
<path d="M501.005 250.116C501.005 250.116 486.855 225.72 506.439 206.305C506.439 206.305 511.562 209.651 511.484 214.087C511.407 218.522 505.998 219.715 507.152 223.451C508.307 227.186 513.43 230.882 510.071 233.982C506.712 237.082 510.615 239.831 510.382 243.618C510.148 247.405 501.005 250.116 501.005 250.116Z" fill="#407BFF"/>
<path d="M502.081 252.347C502.081 252.347 507.814 224.735 483.068 212.504C483.068 212.504 479.255 217.29 480.746 221.583C482.238 225.876 487.724 225.189 487.802 229.118C487.88 233.048 484.196 238.132 488.36 240.013C492.523 241.893 489.657 245.745 491.096 249.273C492.536 252.801 502.081 252.347 502.081 252.347Z" fill="#407BFF"/>
<path opacity="0.5" d="M502.081 252.347C502.081 252.347 507.814 224.735 483.068 212.504C483.068 212.504 479.255 217.29 480.746 221.583C482.238 225.876 487.724 225.189 487.802 229.118C487.88 233.048 484.196 238.132 488.36 240.013C492.523 241.893 489.657 245.745 491.096 249.273C492.536 252.801 502.081 252.347 502.081 252.347Z" fill="black"/>
<path d="M480.396 246.225C480.396 246.225 480.876 264.383 498.917 264.383C516.957 264.383 517.424 246.225 517.424 246.225H480.396Z" fill="#407BFF"/>
<path opacity="0.5" d="M480.396 246.225C480.396 246.225 480.876 264.383 498.917 264.383C516.957 264.383 517.424 246.225 517.424 246.225H480.396Z" fill="black"/>
<path d="M359.307 147.2L390.938 176.407L411.278 138.462L399.051 140.518L391.744 97.0558L364.227 101.682L371.535 145.144L359.307 147.2Z" fill="#407BFF"/>
<path d="M421.007 119.4C421.007 109.769 424.833 100.532 431.644 93.7217C438.454 86.9113 447.691 83.0853 457.322 83.0853V92.5402C453.797 92.5385 450.306 93.2313 447.049 94.5791C443.792 95.9268 440.832 97.9032 438.339 100.395C435.846 102.887 433.868 105.846 432.519 109.102C431.17 112.359 430.475 115.849 430.475 119.374L421.007 119.4Z" fill="#407BFF"/>
<path d="M421.007 119.4H430.475C430.475 126.52 433.304 133.349 438.338 138.384C443.373 143.419 450.202 146.247 457.322 146.247C462.033 146.256 466.661 145.011 470.733 142.642L475.48 150.903C469.959 154.091 463.697 155.769 457.322 155.769C450.947 155.768 444.685 154.09 439.164 150.903C433.643 147.715 429.059 143.131 425.872 137.61C422.685 132.089 421.007 125.827 421.007 119.452V119.4Z" fill="#407BFF"/>
<path opacity="0.5" d="M421.007 119.4H430.475C430.475 126.52 433.304 133.349 438.338 138.384C443.373 143.419 450.202 146.247 457.322 146.247C462.033 146.256 466.661 145.011 470.733 142.642L475.48 150.903C469.959 154.091 463.697 155.769 457.322 155.769C450.947 155.768 444.685 154.09 439.164 150.903C433.643 147.715 429.059 143.131 425.872 137.61C422.685 132.089 421.007 125.827 421.007 119.452V119.4Z" fill="white"/>
<path d="M457.322 92.5401V83.0593C465.342 83.0287 473.146 85.6536 479.517 90.5244C485.888 95.3953 490.468 102.238 492.541 109.985C494.615 117.732 494.065 125.948 490.979 133.35C487.892 140.752 482.443 146.924 475.48 150.903L470.746 142.694C475.902 139.758 479.94 135.196 482.228 129.721C484.516 124.246 484.925 118.168 483.391 112.436C481.857 106.704 478.466 101.642 473.75 98.0424C469.033 94.4425 463.256 92.5076 457.322 92.5401Z" fill="#407BFF"/>
<path opacity="0.7" d="M457.322 92.5401V83.0593C465.342 83.0287 473.146 85.6536 479.517 90.5244C485.888 95.3953 490.468 102.238 492.541 109.985C494.615 117.732 494.065 125.948 490.979 133.35C487.892 140.752 482.443 146.924 475.48 150.903L470.746 142.694C475.902 139.758 479.94 135.196 482.228 129.721C484.516 124.246 484.925 118.168 483.391 112.436C481.857 106.704 478.466 101.642 473.75 98.0424C469.033 94.4425 463.256 92.5076 457.322 92.5401Z" fill="black"/>
</svg>
